<?xml version="1.0" encoding="utf-8" ?>
<svg xmlns="http://www.w3.org/2000/svg" xmlns:xlink="http://www.w3.org/1999/xlink" width="1024" height="1024">
	<path fill="#232222" d="M810.155 64.0959C815.266 63.4758 820.801 64.2507 825.254 66.9427C829.849 69.7203 832.996 74.443 834.22 79.6324C835.693 85.8756 834.307 92.3826 830.835 97.7267C826.645 104.173 821.1 106.732 813.857 108.211C808.544 108.465 803.106 107.532 798.506 104.738C793.909 101.945 790.412 97.324 789.185 92.0647C787.865 86.4063 789.103 80.301 792.183 75.4126C796.361 68.7817 802.832 65.7782 810.155 64.0959ZM810.393 70.1333C805.311 70.9464 800.921 72.5948 797.877 77.0362Q797.438 77.6855 797.069 78.3767Q796.7 79.0679 796.405 79.7935Q796.109 80.5192 795.891 81.2715Q795.672 82.0238 795.532 82.7948Q795.392 83.5657 795.333 84.347Q795.273 85.1283 795.295 85.9115Q795.317 86.6947 795.42 87.4715Q795.522 88.2482 795.705 89.0102Q795.885 89.7653 796.139 90.4986Q796.394 91.2318 796.72 91.9359Q797.047 92.64 797.443 93.3078Q797.838 93.9756 798.299 94.6004Q798.759 95.2253 799.28 95.8008Q799.801 96.3763 800.377 96.8967Q800.953 97.4171 801.578 97.8772Q802.203 98.3373 802.871 98.7325C805.817 100.484 809.054 101.079 812.445 101.053C817.498 99.8971 821.438 98.0023 824.377 93.4744C826.755 89.8085 827.638 85.329 826.569 81.0668Q826.397 80.3634 826.152 79.6817Q825.908 79 825.594 78.3474Q825.28 77.6947 824.9 77.0781Q824.52 76.4616 824.079 75.8877Q823.637 75.3139 823.138 74.7889Q822.639 74.264 822.089 73.7937Q821.538 73.3234 820.941 72.9127Q820.345 72.5021 819.709 72.1555C816.79 70.5685 813.67 70.134 810.393 70.1333Z"/>
	<path fill="#232222" d="M103.632 320.678C117.793 321.326 128.613 326.516 139.336 335.742C151.67 346.356 180.263 382.461 180.829 398.518C180.885 400.105 180.55 400.966 179.48 402.103C177.898 402.678 177.243 402.569 175.662 402.226C172.209 395.666 168.706 389.354 163.43 384.039C148.814 369.313 103.393 347.118 97.5711 329.383C96.9955 327.63 96.829 325.712 97.7993 324.054C99.0676 321.886 101.361 321.279 103.632 320.678ZM104.423 328.137C111.703 339.791 133.204 352.471 144.957 360.343C148.404 362.651 152.559 366.242 156.409 367.681C145.843 351.885 130.139 332.612 110.517 328.7C108.539 328.305 106.433 328.182 104.423 328.137Z"/>
	<path fill="#232222" d="M914.87 312.635C917.983 312.464 921.803 311.917 924.697 313.313C926.209 314.043 927.448 315.368 927.969 316.977C932.5 330.959 871.839 366.029 861.543 375.037C857.357 378.699 854.42 382.76 851.951 387.715C850.985 389.829 849.945 392.455 848.022 393.868C847.097 394.548 846.943 394.453 845.889 394.244C845.239 393.402 844.906 392.713 844.695 391.68C842.642 381.593 851.902 369.723 856.991 361.734C870.857 339.964 888.463 318.502 914.87 312.635ZM915.774 320.082C895.822 324.418 877.701 341.438 866.919 358.309C866.18 359.466 865.576 360.192 865.737 361.605C866.51 361.319 867.094 361.084 867.794 360.636C877.373 354.328 916.748 329.367 919.349 320.629L918.826 319.987C917.764 319.972 916.832 319.964 915.774 320.082Z"/>
	<path fill="#232222" d="M216.582 66.6318C223.579 65.8376 230.61 66.1532 236.567 70.4141C242.15 74.4085 245.298 81.0395 246.186 87.7282C247.223 95.5477 244.964 104.077 240.128 110.321C235.24 116.631 228.717 119.448 221.035 120.538C214.457 120.982 208.128 120.041 202.364 116.674C196.277 113.118 191.966 107.399 190.395 100.507C188.797 93.4932 190.006 85.8679 193.969 79.8326C199.368 71.6097 207.408 68.4669 216.582 66.6318ZM214.927 72.2072C209.476 72.9612 204.744 75.055 201.329 79.523C197.835 84.0953 196.559 90.3175 197.379 95.9613Q197.449 96.4506 197.542 96.9358Q197.636 97.421 197.754 97.9009Q197.872 98.3809 198.014 98.8544Q198.155 99.3279 198.32 99.7937Q198.485 100.26 198.673 100.717Q198.86 101.174 199.071 101.621Q199.281 102.068 199.513 102.505Q199.745 102.941 199.999 103.365Q200.253 103.789 200.527 104.2Q200.801 104.611 201.096 105.008Q201.39 105.405 201.704 105.787Q202.018 106.169 202.35 106.534Q202.683 106.9 203.033 107.249Q203.383 107.598 203.75 107.929Q204.117 108.259 204.5 108.572Q204.883 108.884 205.281 109.177C209.902 112.59 215.035 113.479 220.629 113.462C226.692 112.297 231.609 109.795 235.232 104.597Q235.538 104.156 235.82 103.7Q236.103 103.244 236.362 102.774Q236.621 102.305 236.856 101.822Q237.09 101.34 237.3 100.846Q237.51 100.352 237.694 99.8483Q237.878 99.3444 238.036 98.8318Q238.194 98.3192 238.326 97.7991Q238.458 97.2791 238.563 96.753Q238.668 96.2269 238.746 95.6961Q238.824 95.1653 238.874 94.6313Q238.925 94.0972 238.949 93.5612Q238.972 93.0253 238.968 92.4888Q238.964 91.9524 238.932 91.4168Q238.901 90.8813 238.842 90.348Q238.783 89.8148 238.697 89.2853Q238.611 88.7557 238.498 88.2313C237.412 82.9667 234.464 78.2429 229.846 75.3942C225.172 72.5106 220.255 72.1389 214.927 72.2072Z"/>
	<path fill="#232222" d="M138.121 196.258C138.546 196.431 138.598 196.435 139.044 196.718C140.379 197.566 141.163 198.794 141.993 200.108C145.988 206.433 149.188 213.344 153.057 219.776C161.401 233.645 170.585 247.329 177.79 261.828C180.671 267.623 183.45 274.037 184.725 280.405C186.854 291.045 186.528 300.064 180.414 309.333C176.871 305.584 174.154 300.662 170.844 296.623C153.996 276.069 141.075 263.461 134.859 235.754C131.958 222.827 130.688 207.906 138.121 196.258ZM139.481 211.276C139.071 240.532 152.307 264.314 168.883 287.302C171.758 291.289 174.406 296.075 177.854 299.571C178.051 299.771 178.253 299.965 178.452 300.163C178.57 292.344 178.366 284.589 175.905 277.077C171.702 264.247 162.623 252.207 156.113 240.445C152.649 234.188 143.974 216.077 139.864 211.638C139.744 211.509 139.609 211.397 139.481 211.276Z"/>
	<path fill="#232222" d="M887.247 188.941C887.381 189.076 887.506 189.219 887.628 189.364C893.193 195.958 892.85 207.735 892.059 215.841C888.944 247.781 872.068 268.166 852.767 291.65C849.806 295.253 848.348 300.806 844.778 303.725C844.388 303.319 843.99 302.917 843.632 302.482C838.816 296.638 838.067 287.834 838.801 280.591C841.405 254.9 859.104 236.913 871.393 215.697C875.87 207.967 880.357 194.501 887.247 188.941ZM885.763 203.416C880.999 211.822 876.375 220.325 871.405 228.61C861.246 245.546 842.815 270.847 847.574 291.65C847.612 291.815 847.668 291.975 847.715 292.137C863.984 268.591 880.151 246.57 884.996 217.559C885.605 213.913 887.003 208.002 886.243 204.36C886.146 203.896 886.007 203.759 885.763 203.416Z"/>
	<path fill="#232222" d="M947.289 400.697C951.119 400.732 955.144 401.289 957.876 404.28C959.468 406.021 960.367 408.103 960.132 410.48C958.275 429.289 893.951 460.159 878.671 469.153Q866.911 476.082 856.321 484.693C854.311 486.505 852.335 488.867 849.441 488.805C848.433 488.187 847.862 487.926 847.523 486.685C846.2 481.844 854.117 472.028 856.822 468.449C877.219 441.464 912.678 405.548 947.289 400.697ZM947.732 408.596C917.324 414.499 885.817 443.404 867.403 467.503L871.539 464.724C886.678 455.159 947.934 425.929 951.551 411.359C951.76 410.518 951.557 410.329 951.281 409.551C949.974 408.821 949.185 408.71 947.732 408.596Z"/>
	<path fill="#232222" d="M72.396 409.214C75.4745 408.967 78.4688 409.042 81.5252 409.501C110.006 413.781 134.628 439.872 153.01 460.431C159.34 467.511 165.666 474.608 171.343 482.228C173.841 485.582 179.949 493.22 178.637 497.602C178.221 498.989 177.363 499.342 176.233 500.074C174.645 500.14 174.154 499.633 172.807 498.841Q166.937 493.495 160.629 488.673Q154.322 483.852 147.624 479.589C127.386 466.76 76.2604 441.816 65.82 421.783C64.6792 419.595 63.8639 416.896 64.912 414.506C66.2234 411.515 69.5194 410.17 72.396 409.214ZM72.118 416.589C72.8787 422.665 82.6501 429.47 87.2072 433.003C106.793 448.189 129.171 458.209 150.173 471.063C147.858 466.077 143.559 461.56 139.873 457.543C125.597 441.991 107.768 426.622 87.6962 419.383C82.6958 417.58 77.4684 416.174 72.118 416.589Z"/>
	<path fill="#232222" d="M931.075 518.502C931.725 518.604 932.749 518.825 933.313 519.206C934.499 520.006 934.519 520.383 934.754 521.69C932.536 528.299 925.121 534.607 920.397 539.604C908.614 552.065 896.66 564.155 883.933 575.667C871.898 586.551 859.227 596.819 847.695 608.243Q839.081 616.641 831.303 625.818Q823.524 634.994 816.65 644.867C816.181 644.856 815.557 644.86 815.109 644.754C813.671 644.412 813.319 643.957 812.455 642.864C810.154 633.644 825.293 621.103 829.259 613.378C830.469 611.022 831.004 607.837 831.75 605.249C833.083 600.633 834.579 596.15 836.677 591.818C840.633 583.65 846.236 575.997 852.089 569.084C873.286 544.05 900.506 529.072 931.075 518.502ZM914.276 532.076C886.722 544.618 861.953 562.201 846.774 589.06C844.682 592.762 842.249 596.617 840.749 600.595C840.48 601.311 840.567 601.127 840.539 602.016C860.437 585.9 879.2 567.802 897.501 549.913C902.933 544.603 909.816 539.116 914.187 532.992L914.276 532.076Z"/>
	<path fill="#232222" d="M92.28 527.291C104.78 527.416 129.966 540.304 140.765 547.305C160.466 560.079 180.055 578.363 190.399 599.648C194.037 607.135 195.63 615.763 199.659 622.942C203.911 630.518 212.574 637.012 214.212 645.813C214.795 648.945 214.184 651.233 212.38 653.802C211.469 654.049 211.005 653.967 210.085 653.849C207.265 652.236 205.826 648.81 204.419 646.003C194.764 626.744 155.436 596.125 138.203 580.495C127.025 570.356 116.502 559.71 106.091 548.79C101.147 543.604 93.6991 537.474 90.5951 531.01C90.6967 529.22 91.2673 528.734 92.28 527.291ZM111.495 541.358C117.729 547.146 123.551 553.351 129.727 559.202Q150.578 578.894 172.075 597.879C175.751 601.162 183.139 609.023 187.594 610.693C184.11 603.119 180.474 595.836 175.708 588.956C161.414 568.326 138.355 551.142 114.927 542.4C113.794 541.977 112.695 541.555 111.495 541.358Z"/>
	<path fill="#232222" d="M819.488 679.685C823.242 679.336 830.119 679.332 833.022 682.139C834.313 683.387 834.778 685.025 834.653 686.776C834.412 690.144 832.31 693.173 830.162 695.642C818.164 709.433 797.316 721.589 781.899 731.358Q764.456 742.484 746.764 753.21C734.029 760.819 720.185 767.312 708.972 777.125C708.092 777.795 707.206 778.472 706.273 779.066C703.984 780.525 701.941 781.119 699.294 780.449C698.301 779.602 697.789 779.262 697.698 777.836C697.496 774.689 700.599 771.17 702.475 768.88C709.274 760.584 717.705 753.566 725.089 745.776C750.605 718.857 780.158 683.838 819.488 679.685ZM817.765 687.588C786.858 693.969 763.778 714.871 742.949 737.278C736.972 743.708 730.866 750.117 725.419 757.007L732.428 752.55C752.759 740.491 816.697 703.038 827.515 687.473C824.236 687.366 821.037 687.345 817.765 687.588Z"/>
	<path fill="#232222" d="M199 686.699C224.651 685.24 248.334 700.232 267.492 715.833C277.615 724.077 330.271 774.685 330.254 783.573C330.251 784.869 329.911 785.753 328.896 786.594C327.481 787.766 326.25 787.821 324.517 787.549C317.427 781.313 310.269 774.237 302.289 769.201C288.689 760.618 273.768 753.815 259.719 745.949C246.712 738.666 196.332 709.348 192.086 696.159C191.491 694.309 191.416 692.401 192.49 690.709C193.88 688.519 196.593 687.322 199 686.699ZM202.57 694.139L200.549 694.592C200.302 695.592 200.247 695.793 200.792 696.744C206.093 705.985 286.162 753.461 299.269 758.965L300.159 759.159C299.341 754.832 269.931 728.419 264.522 723.85Q257.606 717.978 250.11 712.866C236.22 703.445 219.589 695.156 202.57 694.139Z"/>
	<path fill="#232222" d="M510.85 65.2427Q516.302 65.0487 521.757 65.0587Q527.212 65.0687 532.663 65.2826Q538.114 65.4966 543.553 65.9142Q548.992 66.3318 554.412 66.9525Q559.832 67.5733 565.225 68.3962Q570.617 69.2191 575.976 70.2431Q581.334 71.2671 586.65 72.4908Q591.966 73.7144 597.233 75.136Q601.044 76.1674 604.828 77.2918Q608.612 78.4161 612.368 79.6327Q616.123 80.8493 619.848 82.1574Q623.573 83.4656 627.265 84.8644Q630.956 86.2633 634.613 87.7521Q638.269 89.2408 641.888 90.8186Q645.506 92.3964 649.086 94.0622Q652.665 95.7281 656.202 97.481Q659.739 99.2339 663.232 101.073Q666.726 102.912 670.173 104.836Q673.62 106.76 677.019 108.767Q680.419 110.775 683.768 112.865Q687.117 114.955 690.414 117.127Q693.711 119.298 696.953 121.55Q700.196 123.801 703.383 126.131Q706.569 128.462 709.698 130.869Q712.827 133.277 715.896 135.76Q718.965 138.243 721.972 140.801Q724.979 143.358 727.923 145.989Q730.867 148.619 733.745 151.321Q736.624 154.023 739.435 156.794Q742.247 159.565 744.99 162.405Q747.733 165.244 750.405 168.149Q753.078 171.055 755.679 174.025Q758.279 176.995 760.807 180.028Q763.334 183.061 765.786 186.154Q768.239 189.248 770.615 192.401Q772.99 195.554 775.289 198.764Q777.587 201.973 779.805 205.239Q782.024 208.504 784.163 211.823Q786.301 215.141 788.357 218.511Q790.414 221.881 792.387 225.3Q794.687 229.392 796.876 233.544Q799.064 237.697 801.139 241.907Q803.215 246.117 805.175 250.382Q807.136 254.647 808.98 258.963Q810.824 263.28 812.551 267.644Q814.278 272.009 815.886 276.419Q817.495 280.829 818.983 285.281Q820.471 289.732 821.838 294.223Q823.205 298.713 824.45 303.239Q825.695 307.765 826.818 312.322Q827.94 316.88 828.938 321.467Q829.936 326.053 830.81 330.665Q831.684 335.277 832.433 339.911Q833.182 344.544 833.805 349.197Q834.428 353.849 834.925 358.517Q835.421 363.184 835.792 367.864Q836.162 372.543 836.406 377.23Q836.649 381.918 836.766 386.61Q836.882 391.303 836.872 395.997Q836.861 400.691 836.724 405.383Q836.586 410.074 836.322 414.761Q836.058 419.447 835.666 424.125Q835.275 428.802 834.758 433.468Q834.24 438.133 833.596 442.783Q832.952 447.432 832.183 452.063Q831.414 456.693 830.519 461.301Q829.625 465.909 828.606 470.491Q827.587 475.073 826.445 479.626Q825.302 484.178 824.037 488.699Q822.772 493.219 821.385 497.703Q819.998 502.187 818.49 506.632Q816.982 511.077 815.354 515.48C804.152 545.375 788.202 573.683 769.915 599.791C754.377 621.973 736.693 642.698 718.484 662.727C700.991 681.968 681.498 700.714 668.399 723.395C651.612 752.462 643.327 784.363 634.56 816.472C639.803 819.828 643.871 823.766 646.308 829.613C650.982 840.829 646.925 853.234 638.786 861.669C635.587 864.985 631.425 867.875 628.766 871.658C626.995 874.179 625.985 877.506 624.77 880.329C622.872 884.74 620.068 888.852 617.189 892.679C607.221 905.932 595.858 912.32 580.764 918.364C580.076 921.617 579.351 924.942 577.421 927.721C574.088 932.52 568.639 933.293 563.316 934.255L562.54 935.316C549.853 952.516 535.202 956.776 514.619 959.877C493.944 963.205 469.771 957.255 452.672 945.311C445.413 940.241 439.322 933.996 437.724 924.955Q430.669 923.07 423.833 920.503C411.026 915.643 392.677 906.724 386.945 893.266C384.771 888.163 384.985 883.316 387.129 878.281C383.016 874.961 378.901 871.583 375.475 867.531C370.467 861.606 367.729 854.647 368.513 846.776C369.399 837.876 374.007 832.093 380.737 826.762C370.68 787.291 360.625 746.854 339.522 711.573C323.715 685.147 300.27 664.233 280.443 640.936C225.872 576.812 193.249 500.371 189.309 416.015C185.176 327.53 210.824 243.205 271.05 177.302Q273.895 174.147 276.818 171.063Q279.74 167.98 282.739 164.971Q285.738 161.962 288.811 159.029Q291.884 156.095 295.03 153.24Q298.176 150.384 301.392 147.608Q304.607 144.832 307.892 142.137Q311.176 139.443 314.527 136.831Q317.877 134.219 321.292 131.691Q324.707 129.164 328.184 126.723Q331.661 124.282 335.198 121.928Q338.735 119.575 342.33 117.31Q345.924 115.046 349.574 112.872Q353.224 110.699 356.928 108.617Q360.631 106.535 364.385 104.546Q368.139 102.557 371.942 100.663Q375.745 98.7689 379.594 96.9703Q383.442 95.1717 387.335 93.4699Q391.228 91.7681 395.162 90.1641Q399.096 88.5601 403.068 87.0549Q407.041 85.5497 411.05 84.1443Q415.06 82.7389 419.103 81.4342Q423.146 80.1294 427.22 78.9261Q431.294 77.7228 435.398 76.6218Q439.501 75.5207 443.63 74.5225Q447.76 73.5243 451.913 72.6297Q456.066 71.735 460.24 70.9444Q464.414 70.1539 468.607 69.4679Q472.799 68.7819 477.008 68.2009Q481.216 67.6199 485.438 67.1443Q489.66 66.6687 493.892 66.2987Q498.124 65.9288 502.364 65.6647Q506.605 65.4007 510.85 65.2427ZM503.226 80.6984C412.218 87.5584 335.999 125.972 276.475 195.219C262.312 211.696 249.202 229.33 238.876 248.49C209.801 302.436 200.209 370.559 204.867 431.122C210.688 506.827 244.524 580.129 293.208 637.843C302.612 648.991 312.962 659.285 322.588 670.234Q327.022 675.226 331.175 680.454Q335.328 685.682 339.188 691.13Q343.047 696.578 346.6 702.231Q350.154 707.884 353.391 713.723C366.229 737.011 374.978 763.501 380.944 789.34C383.368 799.839 384.434 810.779 387.625 821.078C387.801 820.962 387.979 820.849 388.153 820.731C392.944 817.475 396.539 812.808 401.243 809.452C415.42 799.337 433.373 792.69 450.131 788.128C447.118 780.448 443.783 771.492 447.501 763.413Q447.792 762.769 448.146 762.157Q448.5 761.546 448.913 760.973Q449.326 760.399 449.795 759.87Q450.263 759.341 450.782 758.862Q451.302 758.382 451.866 757.957Q452.43 757.532 453.034 757.165Q453.639 756.799 454.276 756.495Q454.914 756.19 455.579 755.951Q456.242 755.713 456.927 755.544Q457.611 755.374 458.309 755.276Q459.007 755.177 459.711 755.15Q460.415 755.123 461.119 755.168Q461.822 755.213 462.517 755.329Q463.212 755.445 463.892 755.632Q464.572 755.818 465.229 756.073Q465.886 756.328 466.514 756.648C469.743 758.326 472.024 761.275 473.071 764.736C475.331 772.206 471.901 779.246 468.531 785.717C479.453 784.398 490.049 783.369 501.067 783.511Q519.87 783.644 538.669 784.056C541.064 776.348 543.822 769.573 551.45 765.669C554.673 764.018 558.076 763.35 561.596 762.694C564.928 764.087 567.826 765.398 569.184 769.04C570.643 772.949 569.132 777.331 567.378 780.881Q565.614 784.5 563.357 787.834C584.001 792.721 606.952 797.82 623.84 811.355C633.691 778.757 641.976 745.444 659.479 715.891C673.725 691.836 693.711 671.948 712.335 651.333Q731.129 630.298 748.122 607.783C804.094 532.736 830.586 446.805 819.131 353.311Q818.27 345.942 817.067 338.621Q815.865 331.3 814.324 324.043Q812.783 316.785 810.907 309.607Q809.031 302.429 806.824 295.346Q804.618 288.262 802.084 281.289Q799.551 274.316 796.697 267.468Q793.844 260.619 790.675 253.911Q787.506 247.202 784.03 240.648C746.67 171.115 680.65 115.483 604.824 92.8118Q594.627 89.7682 584.239 87.4554Q573.852 85.1425 563.326 83.572Q552.801 82.0015 542.191 81.1812Q531.581 80.3609 520.939 80.295C515.216 80.2397 508.886 79.9293 503.226 80.6984ZM468.645 794.687C466.816 794.826 465.125 794.64 463.62 795.743C461.102 803.811 465.721 815.915 469.049 823.23C470.559 826.551 472.887 830.522 473.491 834.145C473.695 835.365 472.833 836.874 471.823 837.52C470.502 838.365 468.845 838.162 467.438 837.673C463.286 836.231 461.369 831.807 459.717 828.074C455.222 817.913 453.756 808.297 453.088 797.325C440.116 800.83 401.248 810.528 395.155 821.661C394.331 823.167 394.214 824.611 394.754 826.258C396.684 832.15 413.106 839.464 418.802 841.698C446.127 852.414 477.71 851.547 506.609 851.411C520.229 851.347 534.456 851.486 547.953 849.485C568.499 846.625 603.547 842.091 617.445 825.726C605.444 808.396 581.806 802.87 562.087 799.304Q555.447 798.14 548.744 797.427Q550.581 802.531 552.881 807.443Q555.18 812.356 557.923 817.036C560.577 821.522 564.464 826.4 566.165 831.308C566.596 832.553 566.626 833.799 565.957 834.986C565.232 836.273 564.341 836.657 563.002 837.082C561.071 836.989 560.078 836.301 558.796 834.944C550.895 826.584 542.383 806.941 539.535 795.584C516.043 795.386 492.092 793.058 468.645 794.687ZM629.151 826.781C617.984 844.343 597.427 851.333 577.984 855.645C532.325 865.769 482.244 863.618 436.543 855.04C423.061 852.509 408.447 849.875 396.742 842.377C393.384 840.226 390.232 837.686 387.203 835.096C383.823 838.943 380.786 843.071 381.114 848.493C381.279 851.226 382.217 853.259 383.787 855.453C406.005 877.073 473.371 880.542 503.787 880.126C538.504 879.652 572.265 874.78 605.306 863.944C612.992 861.423 622.763 858.661 628.594 852.788C632.111 849.245 633.39 844.378 633.3 839.494C633.223 835.29 632.175 830.009 629.262 826.884C629.228 826.847 629.188 826.815 629.151 826.781ZM395.132 888.35C398.19 892.636 401.195 896.382 405.399 899.598C419.144 910.114 442.962 914.646 459.976 917.51C500.276 924.294 568.336 922.042 602.32 897.731C603.129 897.152 603.9 896.565 604.662 895.926C606.652 894.113 608.465 892.256 610.248 890.242C599.494 894.514 588.648 898.365 577.412 901.179C529.09 913.28 474.527 911.797 426.332 899.691C419.51 897.977 412.921 895.643 406.431 892.95C402.8 891.443 398.914 889.35 395.132 888.35ZM544.015 939.651C516.953 944.231 489.844 943.111 462.564 941.814C466.133 943.363 469.694 945.027 473.365 946.317C496.19 953.595 519.938 954.65 541.755 943.529C543.376 942.703 545.407 941.838 546.304 940.18L546.076 939.54L544.015 939.651ZM557.589 771.095C554.206 773.074 549.185 776.302 548.306 780.413C548.047 781.625 548.029 782.806 548.812 783.848C549.538 784.813 550.538 785.292 551.63 785.701C555.526 784.315 558.361 781.962 560.227 778.176C560.902 776.806 561.351 775.137 560.784 773.648C560.261 772.274 558.895 771.555 557.589 771.095ZM458.873 763.454C456.865 765.198 456.055 766.752 455.808 769.425C455.494 772.821 456.096 778.884 458.455 781.49C458.574 781.622 458.722 781.725 458.855 781.842C459.166 781.777 459.74 781.715 460.012 781.566C462.277 777.963 465.387 773.117 464.27 768.668C463.826 766.9 462.778 765.39 461.171 764.503Q460.057 763.903 458.873 763.454Z"/>
	<path fill="#232222" d="M594.463 145.689C598.321 145.345 602.343 145.468 606.204 145.71C645.864 148.188 685.178 171.662 711.087 201.184C722.134 213.771 731.574 227.675 740.313 241.928C758.154 271.025 775.502 304.854 773.061 340.004C772.225 352.031 768.748 366.289 759.059 374.361C752.996 379.411 746.274 380.959 738.583 380.247C734.808 379.188 731.36 378.06 728.306 375.464C719.512 367.986 708.972 339.592 701.859 327.552Q699.173 323.015 696.253 318.624Q693.333 314.233 690.187 310.002Q687.041 305.77 683.678 301.708Q680.316 297.647 676.745 293.767Q673.174 289.887 669.405 286.2Q665.636 282.512 661.679 279.026Q657.723 275.541 653.589 272.267Q649.455 268.994 645.156 265.941C628.892 254.275 611.706 243.813 596.056 231.306C580.423 218.812 560.973 201.103 558.826 180.056Q558.748 179.31 558.707 178.561Q558.667 177.812 558.664 177.062Q558.661 176.312 558.697 175.563Q558.732 174.813 558.805 174.067Q558.878 173.32 558.989 172.578Q559.099 171.837 559.247 171.101Q559.395 170.366 559.58 169.639Q559.765 168.912 559.986 168.195Q560.207 167.479 560.465 166.774Q560.722 166.069 561.014 165.379Q561.307 164.688 561.634 164.013Q561.961 163.338 562.321 162.68Q562.682 162.023 563.076 161.384Q563.469 160.745 563.894 160.127Q564.319 159.509 564.775 158.914Q565.231 158.318 565.716 157.746C573.002 149.214 583.786 146.716 594.463 145.689ZM591.346 156.194C584.386 156.915 577.102 158.251 572.465 164.074C568.867 168.592 567.971 174.545 568.738 180.133C572.841 210.011 631.385 246.14 654.28 264.668C667.477 275.347 680.037 287.058 690.523 300.449C696.144 307.626 701.477 315.31 705.847 323.311C713.459 337.246 719.746 359.051 732.901 368.273C735.754 370.273 738.655 371.383 742.124 371.661C747.625 371.205 751.821 369.596 755.389 365.213C764.134 354.472 764.705 336.66 763.046 323.608C756.915 275.355 718.078 215.511 679.766 186.128C656.312 168.14 621.396 153.496 591.346 156.194Z"/>
	<path fill="#232222" d="M491.065 316.275C531.943 314.772 580.579 318.905 613.231 345.984C639.647 367.892 649.606 400.886 652.796 433.862C623.259 435.215 593.807 435.505 564.249 435.996C562.016 431.204 559.441 426.473 556.066 422.381C545.664 409.768 529.161 405.754 513.569 404.26C497.733 402.742 474.96 402.274 462.06 413.362C457.559 417.23 454.843 422.287 454.63 428.268C454.384 435.178 457.381 441.639 463.229 445.402C474.226 452.478 489.614 453.785 502.335 455.596L547.455 462.037C580.739 466.837 617.533 472.123 642.043 497.637C660.385 516.73 665.425 545.181 664.916 570.782C664.228 605.421 653.122 640.281 627.538 664.617C591.647 698.757 537.779 705.784 490.387 704.546C439.619 704.666 383.07 683.117 346.53 647.721C352.501 632.667 360.427 618.044 367.406 603.412C373.325 590.999 379.703 574.966 387.196 563.71C400.9 570.583 415.155 573.426 430.017 576.439C434.383 585.972 438.825 594.499 446.679 601.664C464.455 617.882 491.885 619.663 514.795 618.635C527.099 618.083 542.35 616.081 550.978 606.217Q551.372 605.761 551.743 605.286Q552.114 604.812 552.461 604.319Q552.809 603.827 553.131 603.318Q553.453 602.809 553.75 602.284Q554.047 601.76 554.317 601.221Q554.588 600.683 554.832 600.132Q555.075 599.581 555.291 599.018Q555.507 598.456 555.695 597.883Q555.883 597.311 556.042 596.729Q556.202 596.148 556.332 595.56Q556.462 594.972 556.564 594.378Q556.665 593.784 556.736 593.186Q556.808 592.587 556.85 591.986Q556.892 591.385 556.904 590.783Q556.916 590.18 556.899 589.578Q556.881 588.976 556.834 588.375C556.165 578.664 550.037 572.077 541.419 568.378C529.431 563.232 514.944 562.963 502.098 561.554C463.539 557.324 410.39 552.687 380.471 525.714C358.702 506.089 352.015 476.541 350.676 448.373C349.068 414.547 356.294 380.379 379.767 354.831C407.888 324.224 451.697 318.061 491.065 316.275Z"/>
</svg>
